<svg width="50" height="50" viewBox="0 0 50 50" fill="none" xmlns="http://www.w3.org/2000/svg">
<path d="M50 14.0625V42.1875C50 44.7754 47.9004 46.875 45.3125 46.875H4.6875C2.09961 46.875 0 44.7754 0 42.1875V14.0625C0 11.4746 2.09961 9.375 4.6875 9.375H13.2812L14.4824 6.16211C15.166 4.33594 16.9141 3.125 18.8672 3.125H31.123C33.0762 3.125 34.8242 4.33594 35.5078 6.16211L36.7188 9.375H45.3125C47.9004 9.375 50 11.4746 50 14.0625ZM36.7188 28.125C36.7188 21.6602 31.4648 16.4062 25 16.4062C18.5352 16.4062 13.2812 21.6602 13.2812 28.125C13.2812 34.5898 18.5352 39.8438 25 39.8438C31.4648 39.8438 36.7188 34.5898 36.7188 28.125ZM33.5938 28.125C33.5938 32.8613 29.7363 36.7188 25 36.7188C20.2637 36.7188 16.4062 32.8613 16.4062 28.125C16.4062 23.3887 20.2637 19.5312 25 19.5312C29.7363 19.5312 33.5938 23.3887 33.5938 28.125Z" fill="white"/>
</svg>
