<svg width="50" height="50" viewBox="0 0 50 50" fill="none" xmlns="http://www.w3.org/2000/svg">
<g clip-path="url(#clip0_1_218)">
<path d="M10 12.5C12.0703 12.5 13.75 10.8203 13.75 8.75C13.75 6.67969 12.0703 5 10 5C7.9297 5 6.25001 6.67969 6.25001 8.75C6.25001 10.8203 7.9297 12.5 10 12.5ZM40 12.5C42.0703 12.5 43.75 10.8203 43.75 8.75C43.75 6.67969 42.0703 5 40 5C37.9297 5 36.25 6.67969 36.25 8.75C36.25 10.8203 37.9297 12.5 40 12.5ZM49.8203 41.5703L46.3828 32.9766L43.1719 36.6016L43.0156 38.0234L45.1797 43.4297C45.5703 44.4062 46.5078 45 47.5 45C47.8125 45 48.125 44.9453 48.4297 44.8203C49.711 44.3047 50.336 42.8516 49.8203 41.5703ZM47.1484 25.1797L45.7031 18.9141C45.3438 17.3516 44.25 16.0391 42.7734 15.4062C41.3281 14.7812 39.7266 14.8828 38.3906 15.6641C36.6172 16.7109 35.2891 18.3594 34.6328 20.3047L33.75 22.9531L32.5 23.75V16.25C32.5 15.5625 31.9375 15 31.25 15H18.75C18.0625 15 17.5 15.5625 17.5 16.25V23.75L16.2422 22.9531L15.3594 20.3047C14.7109 18.3516 13.375 16.7109 11.6016 15.6641C10.2578 14.8828 8.66407 14.7812 7.21876 15.4062C5.7422 16.0391 4.64845 17.3516 4.28907 18.9141L2.85157 25.1797C2.4922 26.7422 2.90626 28.3984 3.97657 29.6094L9.22657 35.5391L10.0156 42.7734C10.1563 44.0469 11.2344 45 12.5 45C12.5938 45 12.6797 44.9922 12.7734 44.9844C14.1484 44.8359 15.1328 43.6016 14.9844 42.2266L14.1953 34.9766C14.0781 33.9609 13.6563 33.0156 12.9766 32.2422L9.59376 28.4141L10.9688 22.9219L11.5 24.5156C11.8203 25.4922 12.4297 26.3438 13.4141 27.0625L17.4063 29.6016C17.7656 29.8281 18.3516 29.9609 18.75 29.9922H31.25C31.6485 29.9609 32.2344 29.8281 32.5938 29.6016L36.586 27.0625C37.5703 26.3438 38.1797 25.5 38.5 24.5156L39.0313 22.9219L40.4063 28.4141L37.0235 32.2422C36.3438 33.0156 35.9219 33.9609 35.8047 34.9766L35.0156 42.2266C34.8672 43.6016 35.8594 44.8359 37.2266 44.9844C37.3203 44.9922 37.4063 45 37.5 45C38.7578 45 39.8438 44.0547 39.9844 42.7734L40.7735 35.5391L46.0234 29.6094C47.0859 28.3984 47.5078 26.7422 47.1484 25.1797ZM3.6172 32.9766L0.179698 41.5703C-0.335927 42.8516 0.289073 44.3047 1.57032 44.8203C2.88282 45.3359 4.31251 44.6875 4.82032 43.4297L6.98439 38.0234L6.82814 36.6016L3.6172 32.9766Z" fill="white"/>
</g>
<defs>
<clipPath id="clip0_1_218">
<rect width="50" height="50" fill="white"/>
</clipPath>
</defs>
</svg>
